<svg width="12" height="14" viewBox="0 0 12 14" fill="none" xmlns="http://www.w3.org/2000/svg">
<path d="M9.1 4.9V3.5C9.1 1.54 7.56 0 5.6 0C3.64 0 2.1 1.54 2.1 3.5V4.9C0.91 4.9 0 5.81 0 7V11.9C0 13.09 0.91 14 2.1 14H9.1C10.29 14 11.2 13.09 11.2 11.9V7C11.2 5.81 10.29 4.9 9.1 4.9ZM3.5 3.5C3.5 2.31 4.41 1.4 5.6 1.4C6.79 1.4 7.7 2.31 7.7 3.5V4.9H3.5V3.5ZM6.3 10.5C6.3 10.92 6.02 11.2 5.6 11.2C5.18 11.2 4.9 10.92 4.9 10.5V8.4C4.9 7.98 5.18 7.7 5.6 7.7C6.02 7.7 6.3 7.98 6.3 8.4V10.5Z" fill="white"/>
</svg>
